Patient4_TMGait_0pt6_01_left_03_EMG.mot
version=1
nRows=33
nColumns=33
inDegrees=no
endheader
time	1LAddLong	2LGlutMax	3LGlutMed	4LIliopsoas	5LSemiMemb	6LBicFemLong	7LRecFem	8LVastMed	9LVastLat	10LGasMed	11LTibAnt	12lTibPost	13LPeroneusLong	14LSol	15LExtDigLong	16LFlexDigLong	17RAddLong	18RGlutMax	19RGlutMed	20RIliopsoas	21RSemiMemb	22RBicFemLong	23RRecFem	24RVastMed	25RVastLat	26RGasMed	27RTibAnt	28RTibPost	29RPeroneusLong	30RSol	31RExtDigLong	32RFlexDigLong
3.992	0.02121	0.39825	-0.1738	0.016022	0.03006	0.24307	0.26733	0.019836	-0.14633	-0.14954	-0.011902	-0.001678	-0.43015	-0.31952	0.088348	-0.000763	-0.005035	-0.18341	-0.24094	-0.080109	-0.068512	-0.055084	0.60288	0.093842	0.001526	0.001221	-0.009155	-0.020752	0.15823	-0.23941	-0.004578	-0.018311
3.993	0.000153	0.38315	-0.035248	0.013885	0.021362	0.31845	0.45517	0.014496	-0.18982	-0.05661	0.03479	0.003052	-1.4815	-0.26764	0.055542	-0.003357	0.018158	-0.23178	-0.26001	-0.045166	-0.071259	-0.11658	0.60364	0.11932	-0.007477	0.009613	-0.050964	-0.017395	0.37781	-0.13107	-0.003662	-0.015411
3.994	-0.011139	0.4158	0.1474	0.015411	-0.10193	0.29892	0.42206	0.041504	-0.15427	-0.059052	-0.002289	0.002289	0.16281	-0.076141	-0.03479	0.01709	0.050354	-0.27679	-0.1947	-0.029144	-0.034027	-0.11276	0.6073	0.093079	0.015869	0.003357	-0.033112	0.024261	0.35919	0.39108	-0.001526	-0.017242
3.995	-0.014954	0.38742	0.1033	0.019836	-0.13473	0.14069	0.40649	0.029602	-0.10452	-0.036469	-0.000458	0.001221	0.085907	-0.077209	-0.12833	0.018463	0.08316	-0.34592	-0.20477	-0.035858	0.035858	-0.094147	0.58716	0.13657	0.01236	-0.016174	-0.000763	0.000305	0.44373	0.57098	-0.003052	-0.015411
3.996	-0.012665	0.37811	0.11688	0.014801	-0.12604	0.041199	0.39078	0.015564	-0.11856	0.02533	0.007324	0.002899	0.010529	-0.11108	-0.18097	0.014191	0.10162	-0.38055	-0.23239	-0.0177	0.03418	-0.015717	0.59326	0.13107	0.023499	-0.029297	0.036469	-0.003052	0.19455	0.37979	-0.002289	-0.009003
3.997	0.008392	0.36697	0.055084	0.035095	-0.042114	-0.093536	0.33997	0.009308	-0.095825	0.063171	0.008392	0.001984	0.14053	-0.12909	-0.10681	0.017242	0.076752	-0.42191	-0.24872	-0.10284	0.032654	0.046539	0.59616	0.086823	0.021057	-0.028229	0.024719	-0.001678	-0.041962	0.10056	-0.003662	-0.017242
3.998	0.021973	0.34073	0.020294	0.024719	0.11856	-0.39719	0.27847	0.027161	-0.035706	0.053864	0.014343	-0.001221	-0.00061	-0.069733	0.013428	0.029755	0.05249	-0.51804	-0.31036	-0.10208	-0.012665	0.079803	0.61874	0.044403	0.000916	-0.015869	0.006409	-0.008698	-0.079193	0.013885	-0.004578	-0.017395
3.999	0.02182	0.37857	0.015259	0.014038	0.1033	-0.42358	0.29053	0.02594	-0.039063	-0.006409	0.025177	0.005341	-0.12894	0.080872	0.03067	0.012512	0.028381	-0.53055	-0.31937	-0.042725	-0.019531	0.13092	0.6073	0.029297	0.014038	-0.004272	0.001373	-0.037842	-0.11246	0.021973	-0.002899	-0.011902
4	0.018158	0.39597	0.063019	0.012665	0.005188	-0.32883	0.30411	0.027161	-0.079956	-0.067902	0.030518	-0.006866	-0.22858	0.21881	0.030823	0.033722	0.011749	-0.48599	-0.28946	-0.050812	-0.010681	0.21744	0.58746	0.079193	0.014648	0.000305	-0.015564	-0.019226	-0.091705	0.10056	-0.003967	-0.013123
4.001	0.007782	0.41687	0.045776	0.014648	-0.004578	-0.15793	0.30838	0.028076	-0.12802	-0.083008	0.015259	0.004425	-0.11459	0.23209	-0.033264	0.030212	0.011139	-0.48813	-0.27939	0.007019	0.003815	0.19241	0.49972	0.056	-0.018158	0.00824	-0.019989	0.002441	-0.048981	0.076447	-0.002899	-0.006866
4.002	0.012665	0.43839	-0.075531	0.007324	0.037537	-0.076447	0.18799	0.023804	-0.077667	-0.10346	-0.001526	0.002136	0.009155	0.13733	-0.030212	0.054932	-0.019836	-0.43701	-0.2449	-0.020599	0.009155	0.10773	0.3894	-0.036011	0.005035	0.010071	0.031281	-0.010376	-0.096893	-0.10223	-0.006104	-0.008087
4.003	0.010071	0.51056	0.006409	0.011139	0.075531	-0.02533	0.11124	0.025635	-0.049896	-0.062561	0.001526	0.004425	0.07431	-0.04303	0.010071	0.047302	-0.032349	-0.3627	-0.24475	-0.12375	0.01358	0.066833	0.32883	-0.061035	-0.009613	0.012512	-0.040588	-0.008698	-0.0737	-0.24643	-0.001831	-0.004425
4.004	0.004578	0.57037	0.063934	0.016785	0.026703	0.11536	0.066986	0.031586	-0.080414	-0.034943	0.000153	0.018158	0.060272	-0.28656	0.043793	0.040894	-0.038757	-0.28915	-0.26443	-0.22934	0.022583	0.050812	0.32776	-0.050201	-0.001984	0.009918	-0.07782	-0.016937	-0.038605	-0.29877	-0.00351	-0.013885
4.005	0.00473	0.62393	0.10391	0.008087	-0.065308	0.24094	0.004578	0.045624	-0.15823	0.000763	-0.000763	0.020752	0.1973	-0.34851	0.058136	0.059967	-0.007935	-0.33463	-0.25467	-0.14679	-0.005646	0.032959	0.29251	0.024109	-0.005798	0.009613	-0.17151	-0.016022	-0.028534	-0.21332	-0.005646	0.004425
4.006	0.014038	0.62317	0.14389	-0.007935	-0.10346	0.20508	-0.079956	0.033417	-0.15167	0.071106	0.019836	0.016632	0.25482	-0.15503	0.082092	0.043335	-0.020752	-0.32181	-0.34515	0.12207	-0.011292	0.034027	0.32394	-0.02594	-0.023499	0.008545	-0.19455	-0.016022	0.027313	-0.14954	-0.003815	-0.00824
4.007	0.014191	0.7608	0.15671	0.008698	-0.087585	0.12131	-0.048523	0.028534	0.079956	0.1265	0.018616	0.02121	0.40237	0.031891	0.10407	0.024414	-0.021362	-0.30945	-0.33478	0.12848	-0.045166	0.007935	0.34042	-0.11963	-0.037384	0.016174	0.059814	-0.02243	-0.063171	-0.15411	0.001068	-0.012512
4.008	0.011444	0.8046	0.19119	0.010681	0.058899	0.06424	-0.020294	0.02243	0.31494	0.13626	0.021057	0.019073	0.48172	0.076447	0.060577	0.001984	-0.020905	-0.26199	-0.34759	0.001831	-0.061188	-0.009918	0.54321	-0.10742	-0.051727	0.00351	0.049591	-0.02243	-0.24887	-0.14297	-0.001678	-0.007019
4.009	0.014954	0.83511	0.19134	0.022125	0.10239	0.066528	-0.066071	0.013885	0.29617	0.12817	0.024872	0.027313	-0.041656	0.14191	-0.01236	0.017853	0.003052	-0.21408	-0.37567	-0.007324	-0.075378	-0.005188	0.78903	-0.057678	-0.040741	-0.011902	0.058289	-0.020294	-0.10162	-0.12451	-0.002136	-0.010681
4.01	-0.007629	0.83633	0.072937	0.016632	0.018463	0.13351	-0.12405	0.016632	0.28488	0.066986	0.014954	0.018768	0.059204	0.096741	-0.10819	0.023651	-0.005798	-0.16495	-0.47562	0.073242	-0.078278	-0.021362	0.87463	-0.043793	-0.05661	0.003052	0.098724	-0.016022	0.055695	-0.11627	-0.006714	-0.014038
4.011	0.002441	0.81589	0.002441	0.022736	-0.041809	0.28122	-0.10696	0.027161	0.1535	0.058899	0.012512	0.021515	-0.58472	0.048218	-0.15518	0.026398	-0.018921	-0.12085	-0.44464	0.15884	-0.038605	-0.049744	0.78461	-0.078583	-0.063477	0.002289	0.065308	-0.016022	-0.03891	-0.08728	-0.002747	-0.011444
4.012	-0.003967	0.82871	-0.018311	0.008545	-0.035248	0.10956	-0.097351	0.025024	0.10803	0.070496	0.009003	0.028381	-0.34485	-0.15289	-0.06012	-0.002899	0.062866	-0.16678	-0.39627	0.12726	-0.027466	-0.11292	0.62393	-0.11108	-0.046997	0.006104	-0.06424	-0.01236	-0.48904	-0.11871	-0.00412	-0.013123
4.013	0.036926	0.78354	-0.001678	0.01297	-0.025482	0.040436	-0.044861	0.019531	-0.17273	0.10498	-0.034332	0.031891	-0.13489	-0.31723	-0.006256	-0.001373	0.085449	-0.14435	-0.38238	0.063782	-0.00061	-0.1474	0.54474	-0.067596	-0.0354	0.004272	-0.065765	-0.012665	-0.24796	-0.11643	-0.001526	-0.018005
4.014	-0.032196	0.71426	-0.1683	-0.019989	-0.003967	0.17868	-0.028381	0.002136	-0.42145	0.1532	-0.013733	0.028381	-0.025482	-0.25452	-0.056	0.007935	0.075684	-0.14374	-0.32883	-0.021362	0.001221	-0.1001	0.57236	-0.072937	-0.035858	0.000305	0.12878	-0.013275	-0.046844	-0.06073	0.001678	-0.010681
4.015	0.004425	0.62561	-0.28885	0.012817	-0.007629	0.29282	-0.080414	-0.010071	-0.12009	0.15717	0.001068	0.021973	0.052795	-0.2887	-0.060883	-0.00824	0.022888	-0.14648	-0.35461	0.020905	0.002747	-0.069733	0.58075	-0.10422	-0.020905	-0.009918	0.28534	-0.014343	-0.02243	-0.042114	-0.001221	-0.017548
4.016	0.010681	0.59204	-0.18662	0.004883	-0.005188	0.30197	-0.1297	-0.002441	-0.01709	0.1265	-0.02121	0.022125	0.068817	-0.14496	-0.039368	0.007477	-0.027771	-0.078583	-0.41504	0.06546	-0.017853	-0.014038	0.60379	-0.075226	-0.0383	-0.009155	0.35217	-0.012512	-0.14847	-0.075531	-0.001678	-0.010376
4.017	0.036621	0.56534	-0.094757	0.005798	0.005188	-0.024414	-0.17899	-0.001678	-0.11826	0.06958	-0.035553	0.019684	0.042572	0.057678	-0.005188	-0.007477	-0.007477	0.032806	-0.40161	0.085907	-0.003662	0.060272	0.51712	-0.074158	-0.009308	-0.012207	0.32089	-0.014191	-0.005341	-0.071716	-0.005646	-0.007629
4.018	0.040131	0.59845	-0.020599	0.027924	0.034332	-0.53665	-0.22339	-0.010223	-0.2504	-0.085602	-0.041504	0.013123	-0.013123	0.14008	-0.015869	0.014496	-0.013123	0.054474	-0.3389	0.092163	0.00473	0.030365	0.49576	-0.036163	-0.012817	-0.011902	-0.084381	-0.011749	0.49622	-0.11444	-0.006866	-0.00824
4.019	0.033875	0.58777	0.036926	-0.004425	-0.031891	-0.3215	-0.24429	-0.001221	-0.18143	-0.070648	-0.023499	0.016327	-0.029907	0.042725	-0.037537	-0.002441	-0.020752	0.06485	-0.36575	0.103	0.027161	0.007477	0.44205	-0.028839	-0.029755	-0.001984	-0.31967	-0.011902	0.168	-0.12146	-0.00412	-0.005188
4.02	0.020752	0.60776	-0.032349	0.005188	-0.026703	0.11154	-0.22095	-0.00351	-0.074615	-0.019836	-0.009613	0.011749	0.013885	-0.094604	0.018921	-0.005341	-0.001831	0.096893	-0.35278	0.023956	0.075226	-0.017395	0.28992	-0.073853	-0.037842	-0.003204	-0.41184	-0.010223	-0.09552	-0.11322	0.001221	-0.013275
4.021	0.02182	0.60974	-0.15747	-0.003204	-0.024414	0.079498	-0.18188	-0.010529	0.004883	-0.001221	0.008698	0.005493	0.00946	-0.027771	0.066223	-0.007782	0.031281	0.085754	-0.2005	-0.009155	0.053101	0.10407	0.23789	-0.10696	-0.035095	0.004578	-0.053101	-0.007782	-0.17212	-0.075531	-0.004272	-0.018158
4.022	0.011902	0.62408	-0.23819	-0.029297	-0.03067	0.08255	-0.16357	0.005646	0.001373	-0.019684	0.007935	0.009155	-0.053864	0.080872	0.018921	-0.006866	0.092163	0.066223	-0.28183	0.012817	0.059814	0.11368	0.27634	-0.13931	-0.023041	0.001068	0.3746	-0.00885	-0.13641	-0.048218	-0.006561	-0.019379
4.023	0.010834	0.63187	-0.067749	0.001831	-0.027924	0.041809	-0.21713	0.00946	0.006714	-0.040894	0.050812	0.002136	-0.099945	0.03891	-0.035095	0.005951	0.11765	0.033875	-0.42358	0.025787	0.051727	0.039825	0.36575	-0.16388	-0.030365	-0.000763	0.24567	-0.00351	-0.050507	-0.11261	-0.003967	-0.002594
4.024	0.004272	0.62347	-0.17151	0.028076	-0.026703	-0.11749	-0.24368	0.000305	0.011292	-0.001831	0.055847	0.001831	0.26367	0.027466	-0.020447	-0.006714	0.13626	0.049133	-0.51117	0.028229	0.006409	0.043488	0.23773	-0.19073	-0.041199	-0.00824	0.23132	-0.005951	-0.078583	-0.1442	-0.003204	-0.016632
